<svg width="95" height="95" viewBox="0 0 95 95" fill="none" xmlns="http://www.w3.org/2000/svg">
<path fill-rule="evenodd" clip-rule="evenodd" d="M41.3599 0.638053C33.5723 2.30271 26.7394 6.94974 22.3423 13.5715L20.8469 15.8232H18.8076C14.0516 15.8232 8.81311 18.1279 5.37347 21.7333C-1.97284 29.4335 -1.75219 41.163 5.87498 48.4367C9.96982 52.3419 14.1744 53.8454 21.0014 53.8454H25.2353L25.3747 57.1862C25.5023 60.2371 25.614 60.6308 26.6598 61.7215C27.2892 62.3786 28.3144 63.0282 28.9375 63.1652C30.0673 63.4131 30.0701 63.4214 30.0701 66.5508V69.688H21.1998H12.33L12.0923 68.7418C11.7576 67.4082 9.35106 65.4188 7.6968 65.1087C5.40715 64.6794 3.51322 65.254 1.89779 66.8688C-2.5615 71.3277 1.43511 78.6105 7.6968 77.4358C9.35106 77.1257 11.7576 75.1363 12.0923 73.8027L12.33 72.8565H22.309C29.5428 72.8565 32.4192 72.7258 32.7638 72.3812C33.0748 72.0703 33.2392 70.4274 33.2392 67.6284V63.3509H34.8237H36.4082V69.688V76.025H29.7532C25.1053 76.025 22.9547 76.1684 22.6227 76.5003C22.3411 76.7819 22.1474 78.1364 22.1474 79.8241C22.1474 82.4963 22.0892 82.6868 21.201 82.9098C19.8672 83.2445 17.8775 85.6506 17.5673 87.3046C17.1379 89.5938 17.7127 91.4874 19.3277 93.1025C23.7874 97.5611 31.0715 93.5651 29.8966 87.3046C29.5864 85.6506 27.5966 83.2445 26.2628 82.9098C25.4448 82.7047 25.3165 82.4361 25.3165 80.9331V79.1935H31.9715C36.6194 79.1935 38.77 79.0502 39.1019 78.7183C39.4379 78.3824 39.5773 76.0603 39.5773 70.797V63.3509H42.7464H45.9155V71.4275V79.5037L44.9691 79.7413C43.6353 80.076 41.6455 82.4821 41.3354 84.136C40.9059 86.4253 41.4807 88.3189 43.0958 89.934C47.5555 94.3925 54.8396 90.3966 53.6646 84.136C53.3545 82.4821 51.3647 80.076 50.0309 79.7413L49.0845 79.5037V71.4275V63.3509H52.2536H55.4227V70.797C55.4227 76.0603 55.5621 78.3824 55.898 78.7183C56.23 79.0502 58.3806 79.1935 63.0285 79.1935H69.6835V80.9331C69.6835 82.4361 69.5552 82.7047 68.7372 82.9098C67.4034 83.2445 65.4136 85.6506 65.1034 87.3046C64.674 89.5938 65.2488 91.4874 66.8638 93.1025C71.3235 97.5611 78.6076 93.5651 77.4327 87.3046C77.1225 85.6506 75.1328 83.2445 73.799 82.9098C72.9108 82.6868 72.8526 82.4963 72.8526 79.8241C72.8526 78.1364 72.6589 76.7819 72.3772 76.5003C72.0453 76.1684 69.8947 76.025 65.2468 76.025H58.5918V69.688V63.3509H60.1763H61.7608V67.6284C61.7608 70.4274 61.9252 72.0703 62.2362 72.3812C62.5808 72.7258 65.4572 72.8565 72.691 72.8565H82.67L82.9077 73.8027C83.2424 75.1363 85.6489 77.1257 87.3032 77.4358C89.5928 77.8651 91.4868 77.2905 93.1022 75.6757C97.5615 71.2168 93.5649 63.934 87.3032 65.1087C85.6489 65.4188 83.2424 67.4082 82.9077 68.7418L82.67 69.688H73.8002H64.9299V66.5508C64.9299 63.4214 64.9327 63.4131 66.0625 63.1652C66.6856 63.0282 67.7108 62.3786 68.3402 61.7215C69.3837 60.6332 69.4977 60.2335 69.6237 57.2254L69.7616 53.9238L76.3794 53.7856L82.9968 53.6474L85.9896 52.1681C89.594 50.3866 91.8401 48.0925 93.5843 44.4111C94.718 42.0185 94.8381 41.4054 94.8381 38.0028C94.8381 34.6002 94.718 33.9871 93.5843 31.5945C91.8603 27.9554 89.5873 25.6155 86.1049 23.895C83.713 22.7131 82.67 22.4386 79.9177 22.2668L76.6072 22.0604L75.5237 19.204C70.3882 5.66134 55.5586 -2.39739 41.3599 0.638053ZM52.9635 3.76934C58.9792 4.9916 65.1311 8.81164 68.7296 13.5593C70.7206 16.186 72.9754 20.6746 73.448 22.9523C73.9808 25.5188 73.9962 25.5268 78.4698 25.5268C82.3717 25.5268 82.6716 25.5885 85.0539 26.8801C87.8356 28.3879 89.0359 29.632 90.5856 32.6135C91.482 34.3384 91.6369 35.1317 91.6369 38.0028C91.6369 40.8739 91.482 41.6672 90.5856 43.3921C89.0347 46.3756 87.8344 47.6189 85.0539 49.1203L82.5579 50.4685L76.0217 50.6036C69.8131 50.7319 69.4613 50.6987 69.0018 49.9394C68.6124 49.2962 68.6314 48.9215 69.098 48.0268C69.8927 46.5043 69.9038 39.0282 69.1139 37.5145C68.6211 36.5702 68.6258 36.2783 69.1503 35.2276C69.6102 34.3055 69.72 32.9577 69.6182 29.4842C69.4859 24.958 69.4819 24.9422 68.1905 23.6522L66.8955 22.3582H47.5H28.1045L26.8095 23.6522C25.5181 24.9422 25.5141 24.958 25.3818 29.4842C25.28 32.9577 25.3898 34.3055 25.8497 35.2276C26.3741 36.2783 26.3789 36.5702 25.8861 37.5145C25.0962 39.0282 25.1073 46.5043 25.902 48.0268C26.3686 48.9219 26.3876 49.297 25.9982 49.943C25.5442 50.6975 25.1972 50.7379 20.3248 50.6032C15.2657 50.4634 15.0598 50.4226 12.1608 48.99C8.57622 47.2188 6.32618 44.9177 4.58477 41.2426C3.45103 38.85 3.331 38.2369 3.331 34.8343C3.331 31.4317 3.45103 30.8186 4.58477 28.426C6.32538 24.7525 8.57662 22.4497 12.1577 20.6801C14.8466 19.3513 15.4701 19.2036 18.7367 19.1192C20.7217 19.0681 22.4556 19.0186 22.5903 19.0091C22.725 18.9996 23.5271 17.8079 24.3729 16.3606C30.0938 6.57229 41.6685 1.47494 52.9635 3.76934ZM66.0391 25.804C66.6864 26.4512 66.6864 33.7118 66.0391 34.359C65.355 35.043 29.645 35.043 28.9609 34.359C28.3136 33.7118 28.3136 26.4512 28.9609 25.804C29.645 25.12 65.355 25.12 66.0391 25.804ZM31.6546 30.0815V31.6658H41.1618H50.6691V30.0815V28.4972H41.1618H31.6546V30.0815ZM53.8381 30.0815V31.6658H55.4227H57.0072V30.0815V28.4972H55.4227H53.8381V30.0815ZM60.1763 30.0815V31.6658H61.7608H63.3454V30.0815V28.4972H61.7608H60.1763V30.0815ZM66.0391 38.4781C66.6864 39.1252 66.6864 46.3859 66.0391 47.0331C65.355 47.7171 29.645 47.7171 28.9609 47.0331C28.3136 46.3859 28.3136 39.1252 28.9609 38.4781C29.645 37.7941 65.355 37.7941 66.0391 38.4781ZM31.6546 42.7556V44.3398H41.1618H50.6691V42.7556V41.1713H41.1618H31.6546V42.7556ZM53.8381 42.7556V44.3398H55.4227H57.0072V42.7556V41.1713H55.4227H53.8381V42.7556ZM60.1763 42.7556V44.3398H61.7608H63.3454V42.7556V41.1713H61.7608H60.1763V42.7556ZM66.0391 51.1522C66.6864 51.7993 66.6864 59.06 66.0391 59.7072C65.355 60.3912 29.645 60.3912 28.9609 59.7072C28.3136 59.06 28.3136 51.7993 28.9609 51.1522C29.645 50.4682 65.355 50.4682 66.0391 51.1522ZM31.6546 55.4297V57.0139H41.1618H50.6691V55.4297V53.8454H41.1618H31.6546V55.4297ZM53.8381 55.4297V57.0139H55.4227H57.0072V55.4297V53.8454H55.4227H53.8381V55.4297ZM60.1763 55.4297V57.0139H61.7608H63.3454V55.4297V53.8454H61.7608H60.1763V55.4297ZM8.49858 69.0761C9.11179 69.6888 9.47109 70.5007 9.47109 71.2722C9.47109 72.0438 9.11179 72.8557 8.49858 73.4684C6.53375 75.4333 3.13294 74.0411 3.13294 71.2722C3.13294 69.644 4.6735 68.1037 6.30201 68.1037C7.07368 68.1037 7.88576 68.463 8.49858 69.0761ZM90.8946 69.0761C92.8598 71.0406 91.4674 74.4408 88.698 74.4408C87.0695 74.4408 85.5289 72.9005 85.5289 71.2722C85.5289 69.644 87.0695 68.1037 88.698 68.1037C89.4697 68.1037 90.2817 68.463 90.8946 69.0761ZM49.6966 83.3344C51.6618 85.2989 50.2694 88.6991 47.5 88.6991C46.7283 88.6991 45.9163 88.3399 45.3034 87.7268C44.6902 87.114 44.3309 86.3021 44.3309 85.5306C44.3309 84.759 44.6902 83.9471 45.3034 83.3344C45.9163 82.7213 46.7283 82.3621 47.5 82.3621C48.2717 82.3621 49.0837 82.7213 49.6966 83.3344ZM25.9285 86.5029C27.8937 88.4674 26.5013 91.8676 23.7319 91.8676C22.1034 91.8676 20.5629 90.3273 20.5629 88.6991C20.5629 87.9276 20.9221 87.1156 21.5354 86.5029C22.1482 85.8898 22.9603 85.5306 23.7319 85.5306C24.5036 85.5306 25.3157 85.8898 25.9285 86.5029ZM73.4646 86.5029C74.0778 87.1156 74.4371 87.9276 74.4371 88.6991C74.4371 89.4706 74.0778 90.2826 73.4646 90.8953C72.8518 91.5084 72.0397 91.8676 71.2681 91.8676C70.4964 91.8676 69.6843 91.5084 69.0715 90.8953C68.4583 90.2826 68.099 89.4706 68.099 88.6991C68.099 87.9276 68.4583 87.1156 69.0715 86.5029C69.6843 85.8898 70.4964 85.5306 71.2681 85.5306C72.0397 85.5306 72.8518 85.8898 73.4646 86.5029Z" fill="white"/>
</svg>
