<svg width="20" height="14" viewBox="0 0 20 14" fill="none" xmlns="http://www.w3.org/2000/svg">
<path fill-rule="evenodd" clip-rule="evenodd" d="M18.8949 6.54362C17.1995 3.23568 13.8431 0.997559 9.99995 0.997559C6.15679 0.997559 2.79945 3.23724 1.10499 6.54393C0.959956 6.83083 0.959956 7.1696 1.10499 7.4565C2.80039 10.7644 6.15679 13.0026 9.99995 13.0026C13.8431 13.0026 17.2004 10.7629 18.8949 7.45619C19.0399 7.16929 19.0399 6.83052 18.8949 6.54362ZM9.99995 11.5019C7.51363 11.5019 5.49808 9.48637 5.49808 7.00005C5.49808 4.51374 7.51363 2.49818 9.99995 2.49818C12.4863 2.49818 14.5018 4.51374 14.5018 7.00005C14.5024 8.1942 14.0283 9.33961 13.1839 10.184C12.3395 11.0284 11.1941 11.5025 9.99995 11.5019ZM9.20868 4.11729C9.46591 4.04241 9.73207 4.00255 9.99995 3.9988C11.2843 3.99578 12.4275 4.81216 12.8415 6.02796C13.2555 7.24375 12.8481 8.58817 11.8288 9.36958C10.8095 10.151 9.40541 10.1953 8.33882 9.47983C7.27224 8.76431 6.78075 7.44829 7.11719 6.20879C7.71263 6.64695 8.53884 6.58445 9.06159 6.0617C9.58434 5.53895 9.64684 4.71274 9.20868 4.11729Z" fill="#747474"/>
</svg>
